<?xml version="1.0" encoding="UTF-8"?>
<svg xmlns="http://www.w3.org/2000/svg" xmlns:xlink="http://www.w3.org/1999/xlink" width="500pt" height="500pt" viewBox="0 0 500 500" version="1.1">
<defs>
<clipPath id="clip1">
  <path d="M 5 5 L 495 5 L 495 495 L 5 495 Z M 5 5 "/>
</clipPath>
<clipPath id="clip2">
  <path d="M 495 250 L 494.8125 379.667969 L 494.242188 404.082031 L 493.289062 420.300781 L 491.945312 432.667969 L 490.199219 442.699219 L 488.03125 451.105469 L 485.425781 458.300781 L 482.355469 464.519531 L 478.785156 469.9375 L 474.664062 474.664062 L 469.9375 478.785156 L 464.519531 482.355469 L 458.300781 485.425781 L 451.105469 488.03125 L 442.699219 490.199219 L 432.667969 491.945312 L 420.300781 493.289062 L 404.082031 494.242188 L 379.667969 494.8125 L 250.023438 495 L 120.332031 494.8125 L 95.917969 494.242188 L 79.699219 493.289062 L 67.332031 491.945312 L 57.300781 490.199219 L 48.894531 488.03125 L 41.699219 485.425781 L 35.480469 482.355469 L 30.0625 478.785156 L 25.335938 474.664062 L 21.214844 469.9375 L 17.644531 464.519531 L 14.574219 458.300781 L 11.96875 451.105469 L 9.800781 442.699219 L 8.054688 432.667969 L 6.710938 420.300781 L 5.757812 404.082031 L 5.1875 379.667969 L 5 250.027344 L 5.1875 120.332031 L 5.757812 95.917969 L 6.710938 79.699219 L 8.054688 67.332031 L 9.800781 57.300781 L 11.96875 48.894531 L 14.574219 41.699219 L 17.644531 35.480469 L 21.214844 30.0625 L 25.335938 25.335938 L 30.0625 21.214844 L 35.480469 17.644531 L 41.699219 14.574219 L 48.894531 11.96875 L 57.300781 9.800781 L 67.332031 8.054688 L 79.699219 6.710938 L 95.917969 5.757812 L 120.332031 5.1875 L 249.972656 5 L 379.667969 5.1875 L 404.082031 5.757812 L 420.300781 6.710938 L 432.667969 8.054688 L 442.699219 9.800781 L 451.105469 11.96875 L 458.300781 14.574219 L 464.519531 17.644531 L 469.9375 21.214844 L 474.664062 25.335938 L 478.785156 30.0625 L 482.355469 35.480469 L 485.425781 41.699219 L 488.03125 48.894531 L 490.199219 57.300781 L 491.945312 67.332031 L 493.289062 79.699219 L 494.242188 95.917969 L 494.8125 120.332031 L 495 249.96875 Z M 495 250 "/>
</clipPath>
<clipPath id="clip3">
  <path d="M 68 274 L 249 274 L 249 456 L 68 456 Z M 68 274 "/>
</clipPath>
<clipPath id="clip4">
  <path d="M 495 250 L 494.8125 379.667969 L 494.242188 404.082031 L 493.289062 420.300781 L 491.945312 432.667969 L 490.199219 442.699219 L 488.03125 451.105469 L 485.425781 458.300781 L 482.355469 464.519531 L 478.785156 469.9375 L 474.664062 474.664062 L 469.9375 478.785156 L 464.519531 482.355469 L 458.300781 485.425781 L 451.105469 488.03125 L 442.699219 490.199219 L 432.667969 491.945312 L 420.300781 493.289062 L 404.082031 494.242188 L 379.667969 494.8125 L 250.023438 495 L 120.332031 494.8125 L 95.917969 494.242188 L 79.699219 493.289062 L 67.332031 491.945312 L 57.300781 490.199219 L 48.894531 488.03125 L 41.699219 485.425781 L 35.480469 482.355469 L 30.0625 478.785156 L 25.335938 474.664062 L 21.214844 469.9375 L 17.644531 464.519531 L 14.574219 458.300781 L 11.96875 451.105469 L 9.800781 442.699219 L 8.054688 432.667969 L 6.710938 420.300781 L 5.757812 404.082031 L 5.1875 379.667969 L 5 250.027344 L 5.1875 120.332031 L 5.757812 95.917969 L 6.710938 79.699219 L 8.054688 67.332031 L 9.800781 57.300781 L 11.96875 48.894531 L 14.574219 41.699219 L 17.644531 35.480469 L 21.214844 30.0625 L 25.335938 25.335938 L 30.0625 21.214844 L 35.480469 17.644531 L 41.699219 14.574219 L 48.894531 11.96875 L 57.300781 9.800781 L 67.332031 8.054688 L 79.699219 6.710938 L 95.917969 5.757812 L 120.332031 5.1875 L 249.972656 5 L 379.667969 5.1875 L 404.082031 5.757812 L 420.300781 6.710938 L 432.667969 8.054688 L 442.699219 9.800781 L 451.105469 11.96875 L 458.300781 14.574219 L 464.519531 17.644531 L 469.9375 21.214844 L 474.664062 25.335938 L 478.785156 30.0625 L 482.355469 35.480469 L 485.425781 41.699219 L 488.03125 48.894531 L 490.199219 57.300781 L 491.945312 67.332031 L 493.289062 79.699219 L 494.242188 95.917969 L 494.8125 120.332031 L 495 249.96875 Z M 495 250 "/>
</clipPath>
<clipPath id="clip5">
  <path d="M 25 232 L 292 232 L 292 495 L 25 495 Z M 25 232 "/>
</clipPath>
<clipPath id="clip6">
  <path d="M 495 250 L 494.8125 379.667969 L 494.242188 404.082031 L 493.289062 420.300781 L 491.945312 432.667969 L 490.199219 442.699219 L 488.03125 451.105469 L 485.425781 458.300781 L 482.355469 464.519531 L 478.785156 469.9375 L 474.664062 474.664062 L 469.9375 478.785156 L 464.519531 482.355469 L 458.300781 485.425781 L 451.105469 488.03125 L 442.699219 490.199219 L 432.667969 491.945312 L 420.300781 493.289062 L 404.082031 494.242188 L 379.667969 494.8125 L 250.023438 495 L 120.332031 494.8125 L 95.917969 494.242188 L 79.699219 493.289062 L 67.332031 491.945312 L 57.300781 490.199219 L 48.894531 488.03125 L 41.699219 485.425781 L 35.480469 482.355469 L 30.0625 478.785156 L 25.335938 474.664062 L 21.214844 469.9375 L 17.644531 464.519531 L 14.574219 458.300781 L 11.96875 451.105469 L 9.800781 442.699219 L 8.054688 432.667969 L 6.710938 420.300781 L 5.757812 404.082031 L 5.1875 379.667969 L 5 250.027344 L 5.1875 120.332031 L 5.757812 95.917969 L 6.710938 79.699219 L 8.054688 67.332031 L 9.800781 57.300781 L 11.96875 48.894531 L 14.574219 41.699219 L 17.644531 35.480469 L 21.214844 30.0625 L 25.335938 25.335938 L 30.0625 21.214844 L 35.480469 17.644531 L 41.699219 14.574219 L 48.894531 11.96875 L 57.300781 9.800781 L 67.332031 8.054688 L 79.699219 6.710938 L 95.917969 5.757812 L 120.332031 5.1875 L 249.972656 5 L 379.667969 5.1875 L 404.082031 5.757812 L 420.300781 6.710938 L 432.667969 8.054688 L 442.699219 9.800781 L 451.105469 11.96875 L 458.300781 14.574219 L 464.519531 17.644531 L 469.9375 21.214844 L 474.664062 25.335938 L 478.785156 30.0625 L 482.355469 35.480469 L 485.425781 41.699219 L 488.03125 48.894531 L 490.199219 57.300781 L 491.945312 67.332031 L 493.289062 79.699219 L 494.242188 95.917969 L 494.8125 120.332031 L 495 249.96875 Z M 495 250 "/>
</clipPath>
<clipPath id="clip7">
  <path d="M 77 365 L 143 365 L 143 433 L 77 433 Z M 77 365 "/>
</clipPath>
<clipPath id="clip8">
  <path d="M 495 250 L 494.8125 379.667969 L 494.242188 404.082031 L 493.289062 420.300781 L 491.945312 432.667969 L 490.199219 442.699219 L 488.03125 451.105469 L 485.425781 458.300781 L 482.355469 464.519531 L 478.785156 469.9375 L 474.664062 474.664062 L 469.9375 478.785156 L 464.519531 482.355469 L 458.300781 485.425781 L 451.105469 488.03125 L 442.699219 490.199219 L 432.667969 491.945312 L 420.300781 493.289062 L 404.082031 494.242188 L 379.667969 494.8125 L 250.023438 495 L 120.332031 494.8125 L 95.917969 494.242188 L 79.699219 493.289062 L 67.332031 491.945312 L 57.300781 490.199219 L 48.894531 488.03125 L 41.699219 485.425781 L 35.480469 482.355469 L 30.0625 478.785156 L 25.335938 474.664062 L 21.214844 469.9375 L 17.644531 464.519531 L 14.574219 458.300781 L 11.96875 451.105469 L 9.800781 442.699219 L 8.054688 432.667969 L 6.710938 420.300781 L 5.757812 404.082031 L 5.1875 379.667969 L 5 250.027344 L 5.1875 120.332031 L 5.757812 95.917969 L 6.710938 79.699219 L 8.054688 67.332031 L 9.800781 57.300781 L 11.96875 48.894531 L 14.574219 41.699219 L 17.644531 35.480469 L 21.214844 30.0625 L 25.335938 25.335938 L 30.0625 21.214844 L 35.480469 17.644531 L 41.699219 14.574219 L 48.894531 11.96875 L 57.300781 9.800781 L 67.332031 8.054688 L 79.699219 6.710938 L 95.917969 5.757812 L 120.332031 5.1875 L 249.972656 5 L 379.667969 5.1875 L 404.082031 5.757812 L 420.300781 6.710938 L 432.667969 8.054688 L 442.699219 9.800781 L 451.105469 11.96875 L 458.300781 14.574219 L 464.519531 17.644531 L 469.9375 21.214844 L 474.664062 25.335938 L 478.785156 30.0625 L 482.355469 35.480469 L 485.425781 41.699219 L 488.03125 48.894531 L 490.199219 57.300781 L 491.945312 67.332031 L 493.289062 79.699219 L 494.242188 95.917969 L 494.8125 120.332031 L 495 249.96875 Z M 495 250 "/>
</clipPath>
<clipPath id="clip9">
  <path d="M 35 322 L 185 322 L 185 476 L 35 476 Z M 35 322 "/>
</clipPath>
<clipPath id="clip10">
  <path d="M 495 250 L 494.8125 379.667969 L 494.242188 404.082031 L 493.289062 420.300781 L 491.945312 432.667969 L 490.199219 442.699219 L 488.03125 451.105469 L 485.425781 458.300781 L 482.355469 464.519531 L 478.785156 469.9375 L 474.664062 474.664062 L 469.9375 478.785156 L 464.519531 482.355469 L 458.300781 485.425781 L 451.105469 488.03125 L 442.699219 490.199219 L 432.667969 491.945312 L 420.300781 493.289062 L 404.082031 494.242188 L 379.667969 494.8125 L 250.023438 495 L 120.332031 494.8125 L 95.917969 494.242188 L 79.699219 493.289062 L 67.332031 491.945312 L 57.300781 490.199219 L 48.894531 488.03125 L 41.699219 485.425781 L 35.480469 482.355469 L 30.0625 478.785156 L 25.335938 474.664062 L 21.214844 469.9375 L 17.644531 464.519531 L 14.574219 458.300781 L 11.96875 451.105469 L 9.800781 442.699219 L 8.054688 432.667969 L 6.710938 420.300781 L 5.757812 404.082031 L 5.1875 379.667969 L 5 250.027344 L 5.1875 120.332031 L 5.757812 95.917969 L 6.710938 79.699219 L 8.054688 67.332031 L 9.800781 57.300781 L 11.96875 48.894531 L 14.574219 41.699219 L 17.644531 35.480469 L 21.214844 30.0625 L 25.335938 25.335938 L 30.0625 21.214844 L 35.480469 17.644531 L 41.699219 14.574219 L 48.894531 11.96875 L 57.300781 9.800781 L 67.332031 8.054688 L 79.699219 6.710938 L 95.917969 5.757812 L 120.332031 5.1875 L 249.972656 5 L 379.667969 5.1875 L 404.082031 5.757812 L 420.300781 6.710938 L 432.667969 8.054688 L 442.699219 9.800781 L 451.105469 11.96875 L 458.300781 14.574219 L 464.519531 17.644531 L 469.9375 21.214844 L 474.664062 25.335938 L 478.785156 30.0625 L 482.355469 35.480469 L 485.425781 41.699219 L 488.03125 48.894531 L 490.199219 57.300781 L 491.945312 67.332031 L 493.289062 79.699219 L 494.242188 95.917969 L 494.8125 120.332031 L 495 249.96875 Z M 495 250 "/>
</clipPath>
<clipPath id="clip11">
  <path d="M 120 283 L 197 283 L 197 339 L 120 339 Z M 120 283 "/>
</clipPath>
<clipPath id="clip12">
  <path d="M 495 250 L 494.8125 379.667969 L 494.242188 404.082031 L 493.289062 420.300781 L 491.945312 432.667969 L 490.199219 442.699219 L 488.03125 451.105469 L 485.425781 458.300781 L 482.355469 464.519531 L 478.785156 469.9375 L 474.664062 474.664062 L 469.9375 478.785156 L 464.519531 482.355469 L 458.300781 485.425781 L 451.105469 488.03125 L 442.699219 490.199219 L 432.667969 491.945312 L 420.300781 493.289062 L 404.082031 494.242188 L 379.667969 494.8125 L 250.023438 495 L 120.332031 494.8125 L 95.917969 494.242188 L 79.699219 493.289062 L 67.332031 491.945312 L 57.300781 490.199219 L 48.894531 488.03125 L 41.699219 485.425781 L 35.480469 482.355469 L 30.0625 478.785156 L 25.335938 474.664062 L 21.214844 469.9375 L 17.644531 464.519531 L 14.574219 458.300781 L 11.96875 451.105469 L 9.800781 442.699219 L 8.054688 432.667969 L 6.710938 420.300781 L 5.757812 404.082031 L 5.1875 379.667969 L 5 250.027344 L 5.1875 120.332031 L 5.757812 95.917969 L 6.710938 79.699219 L 8.054688 67.332031 L 9.800781 57.300781 L 11.96875 48.894531 L 14.574219 41.699219 L 17.644531 35.480469 L 21.214844 30.0625 L 25.335938 25.335938 L 30.0625 21.214844 L 35.480469 17.644531 L 41.699219 14.574219 L 48.894531 11.96875 L 57.300781 9.800781 L 67.332031 8.054688 L 79.699219 6.710938 L 95.917969 5.757812 L 120.332031 5.1875 L 249.972656 5 L 379.667969 5.1875 L 404.082031 5.757812 L 420.300781 6.710938 L 432.667969 8.054688 L 442.699219 9.800781 L 451.105469 11.96875 L 458.300781 14.574219 L 464.519531 17.644531 L 469.9375 21.214844 L 474.664062 25.335938 L 478.785156 30.0625 L 482.355469 35.480469 L 485.425781 41.699219 L 488.03125 48.894531 L 490.199219 57.300781 L 491.945312 67.332031 L 493.289062 79.699219 L 494.242188 95.917969 L 494.8125 120.332031 L 495 249.96875 Z M 495 250 "/>
</clipPath>
<clipPath id="clip13">
  <path d="M 78 241 L 239 241 L 239 381 L 78 381 Z M 78 241 "/>
</clipPath>
<clipPath id="clip14">
  <path d="M 495 250 L 494.8125 379.667969 L 494.242188 404.082031 L 493.289062 420.300781 L 491.945312 432.667969 L 490.199219 442.699219 L 488.03125 451.105469 L 485.425781 458.300781 L 482.355469 464.519531 L 478.785156 469.9375 L 474.664062 474.664062 L 469.9375 478.785156 L 464.519531 482.355469 L 458.300781 485.425781 L 451.105469 488.03125 L 442.699219 490.199219 L 432.667969 491.945312 L 420.300781 493.289062 L 404.082031 494.242188 L 379.667969 494.8125 L 250.023438 495 L 120.332031 494.8125 L 95.917969 494.242188 L 79.699219 493.289062 L 67.332031 491.945312 L 57.300781 490.199219 L 48.894531 488.03125 L 41.699219 485.425781 L 35.480469 482.355469 L 30.0625 478.785156 L 25.335938 474.664062 L 21.214844 469.9375 L 17.644531 464.519531 L 14.574219 458.300781 L 11.96875 451.105469 L 9.800781 442.699219 L 8.054688 432.667969 L 6.710938 420.300781 L 5.757812 404.082031 L 5.1875 379.667969 L 5 250.027344 L 5.1875 120.332031 L 5.757812 95.917969 L 6.710938 79.699219 L 8.054688 67.332031 L 9.800781 57.300781 L 11.96875 48.894531 L 14.574219 41.699219 L 17.644531 35.480469 L 21.214844 30.0625 L 25.335938 25.335938 L 30.0625 21.214844 L 35.480469 17.644531 L 41.699219 14.574219 L 48.894531 11.96875 L 57.300781 9.800781 L 67.332031 8.054688 L 79.699219 6.710938 L 95.917969 5.757812 L 120.332031 5.1875 L 249.972656 5 L 379.667969 5.1875 L 404.082031 5.757812 L 420.300781 6.710938 L 432.667969 8.054688 L 442.699219 9.800781 L 451.105469 11.96875 L 458.300781 14.574219 L 464.519531 17.644531 L 469.9375 21.214844 L 474.664062 25.335938 L 478.785156 30.0625 L 482.355469 35.480469 L 485.425781 41.699219 L 488.03125 48.894531 L 490.199219 57.300781 L 491.945312 67.332031 L 493.289062 79.699219 L 494.242188 95.917969 L 494.8125 120.332031 L 495 249.96875 Z M 495 250 "/>
</clipPath>
<clipPath id="clip15">
  <path d="M 174 365 L 240 365 L 240 433 L 174 433 Z M 174 365 "/>
</clipPath>
<clipPath id="clip16">
  <path d="M 495 250 L 494.8125 379.667969 L 494.242188 404.082031 L 493.289062 420.300781 L 491.945312 432.667969 L 490.199219 442.699219 L 488.03125 451.105469 L 485.425781 458.300781 L 482.355469 464.519531 L 478.785156 469.9375 L 474.664062 474.664062 L 469.9375 478.785156 L 464.519531 482.355469 L 458.300781 485.425781 L 451.105469 488.03125 L 442.699219 490.199219 L 432.667969 491.945312 L 420.300781 493.289062 L 404.082031 494.242188 L 379.667969 494.8125 L 250.023438 495 L 120.332031 494.8125 L 95.917969 494.242188 L 79.699219 493.289062 L 67.332031 491.945312 L 57.300781 490.199219 L 48.894531 488.03125 L 41.699219 485.425781 L 35.480469 482.355469 L 30.0625 478.785156 L 25.335938 474.664062 L 21.214844 469.9375 L 17.644531 464.519531 L 14.574219 458.300781 L 11.96875 451.105469 L 9.800781 442.699219 L 8.054688 432.667969 L 6.710938 420.300781 L 5.757812 404.082031 L 5.1875 379.667969 L 5 250.027344 L 5.1875 120.332031 L 5.757812 95.917969 L 6.710938 79.699219 L 8.054688 67.332031 L 9.800781 57.300781 L 11.96875 48.894531 L 14.574219 41.699219 L 17.644531 35.480469 L 21.214844 30.0625 L 25.335938 25.335938 L 30.0625 21.214844 L 35.480469 17.644531 L 41.699219 14.574219 L 48.894531 11.96875 L 57.300781 9.800781 L 67.332031 8.054688 L 79.699219 6.710938 L 95.917969 5.757812 L 120.332031 5.1875 L 249.972656 5 L 379.667969 5.1875 L 404.082031 5.757812 L 420.300781 6.710938 L 432.667969 8.054688 L 442.699219 9.800781 L 451.105469 11.96875 L 458.300781 14.574219 L 464.519531 17.644531 L 469.9375 21.214844 L 474.664062 25.335938 L 478.785156 30.0625 L 482.355469 35.480469 L 485.425781 41.699219 L 488.03125 48.894531 L 490.199219 57.300781 L 491.945312 67.332031 L 493.289062 79.699219 L 494.242188 95.917969 L 494.8125 120.332031 L 495 249.96875 Z M 495 250 "/>
</clipPath>
<clipPath id="clip17">
  <path d="M 132 322 L 282 322 L 282 476 L 132 476 Z M 132 322 "/>
</clipPath>
<clipPath id="clip18">
  <path d="M 495 250 L 494.8125 379.667969 L 494.242188 404.082031 L 493.289062 420.300781 L 491.945312 432.667969 L 490.199219 442.699219 L 488.03125 451.105469 L 485.425781 458.300781 L 482.355469 464.519531 L 478.785156 469.9375 L 474.664062 474.664062 L 469.9375 478.785156 L 464.519531 482.355469 L 458.300781 485.425781 L 451.105469 488.03125 L 442.699219 490.199219 L 432.667969 491.945312 L 420.300781 493.289062 L 404.082031 494.242188 L 379.667969 494.8125 L 250.023438 495 L 120.332031 494.8125 L 95.917969 494.242188 L 79.699219 493.289062 L 67.332031 491.945312 L 57.300781 490.199219 L 48.894531 488.03125 L 41.699219 485.425781 L 35.480469 482.355469 L 30.0625 478.785156 L 25.335938 474.664062 L 21.214844 469.9375 L 17.644531 464.519531 L 14.574219 458.300781 L 11.96875 451.105469 L 9.800781 442.699219 L 8.054688 432.667969 L 6.710938 420.300781 L 5.757812 404.082031 L 5.1875 379.667969 L 5 250.027344 L 5.1875 120.332031 L 5.757812 95.917969 L 6.710938 79.699219 L 8.054688 67.332031 L 9.800781 57.300781 L 11.96875 48.894531 L 14.574219 41.699219 L 17.644531 35.480469 L 21.214844 30.0625 L 25.335938 25.335938 L 30.0625 21.214844 L 35.480469 17.644531 L 41.699219 14.574219 L 48.894531 11.96875 L 57.300781 9.800781 L 67.332031 8.054688 L 79.699219 6.710938 L 95.917969 5.757812 L 120.332031 5.1875 L 249.972656 5 L 379.667969 5.1875 L 404.082031 5.757812 L 420.300781 6.710938 L 432.667969 8.054688 L 442.699219 9.800781 L 451.105469 11.96875 L 458.300781 14.574219 L 464.519531 17.644531 L 469.9375 21.214844 L 474.664062 25.335938 L 478.785156 30.0625 L 482.355469 35.480469 L 485.425781 41.699219 L 488.03125 48.894531 L 490.199219 57.300781 L 491.945312 67.332031 L 493.289062 79.699219 L 494.242188 95.917969 L 494.8125 120.332031 L 495 249.96875 Z M 495 250 "/>
</clipPath>
<clipPath id="clip19">
  <path d="M 68 44 L 249 44 L 249 226 L 68 226 Z M 68 44 "/>
</clipPath>
<clipPath id="clip20">
  <path d="M 495 250 L 494.8125 379.667969 L 494.242188 404.082031 L 493.289062 420.300781 L 491.945312 432.667969 L 490.199219 442.699219 L 488.03125 451.105469 L 485.425781 458.300781 L 482.355469 464.519531 L 478.785156 469.9375 L 474.664062 474.664062 L 469.9375 478.785156 L 464.519531 482.355469 L 458.300781 485.425781 L 451.105469 488.03125 L 442.699219 490.199219 L 432.667969 491.945312 L 420.300781 493.289062 L 404.082031 494.242188 L 379.667969 494.8125 L 250.023438 495 L 120.332031 494.8125 L 95.917969 494.242188 L 79.699219 493.289062 L 67.332031 491.945312 L 57.300781 490.199219 L 48.894531 488.03125 L 41.699219 485.425781 L 35.480469 482.355469 L 30.0625 478.785156 L 25.335938 474.664062 L 21.214844 469.9375 L 17.644531 464.519531 L 14.574219 458.300781 L 11.96875 451.105469 L 9.800781 442.699219 L 8.054688 432.667969 L 6.710938 420.300781 L 5.757812 404.082031 L 5.1875 379.667969 L 5 250.027344 L 5.1875 120.332031 L 5.757812 95.917969 L 6.710938 79.699219 L 8.054688 67.332031 L 9.800781 57.300781 L 11.96875 48.894531 L 14.574219 41.699219 L 17.644531 35.480469 L 21.214844 30.0625 L 25.335938 25.335938 L 30.0625 21.214844 L 35.480469 17.644531 L 41.699219 14.574219 L 48.894531 11.96875 L 57.300781 9.800781 L 67.332031 8.054688 L 79.699219 6.710938 L 95.917969 5.757812 L 120.332031 5.1875 L 249.972656 5 L 379.667969 5.1875 L 404.082031 5.757812 L 420.300781 6.710938 L 432.667969 8.054688 L 442.699219 9.800781 L 451.105469 11.96875 L 458.300781 14.574219 L 464.519531 17.644531 L 469.9375 21.214844 L 474.664062 25.335938 L 478.785156 30.0625 L 482.355469 35.480469 L 485.425781 41.699219 L 488.03125 48.894531 L 490.199219 57.300781 L 491.945312 67.332031 L 493.289062 79.699219 L 494.242188 95.917969 L 494.8125 120.332031 L 495 249.96875 Z M 495 250 "/>
</clipPath>
<clipPath id="clip21">
  <path d="M 25 5 L 292 5 L 292 268 L 25 268 Z M 25 5 "/>
</clipPath>
<clipPath id="clip22">
  <path d="M 495 250 L 494.8125 379.667969 L 494.242188 404.082031 L 493.289062 420.300781 L 491.945312 432.667969 L 490.199219 442.699219 L 488.03125 451.105469 L 485.425781 458.300781 L 482.355469 464.519531 L 478.785156 469.9375 L 474.664062 474.664062 L 469.9375 478.785156 L 464.519531 482.355469 L 458.300781 485.425781 L 451.105469 488.03125 L 442.699219 490.199219 L 432.667969 491.945312 L 420.300781 493.289062 L 404.082031 494.242188 L 379.667969 494.8125 L 250.023438 495 L 120.332031 494.8125 L 95.917969 494.242188 L 79.699219 493.289062 L 67.332031 491.945312 L 57.300781 490.199219 L 48.894531 488.03125 L 41.699219 485.425781 L 35.480469 482.355469 L 30.0625 478.785156 L 25.335938 474.664062 L 21.214844 469.9375 L 17.644531 464.519531 L 14.574219 458.300781 L 11.96875 451.105469 L 9.800781 442.699219 L 8.054688 432.667969 L 6.710938 420.300781 L 5.757812 404.082031 L 5.1875 379.667969 L 5 250.027344 L 5.1875 120.332031 L 5.757812 95.917969 L 6.710938 79.699219 L 8.054688 67.332031 L 9.800781 57.300781 L 11.96875 48.894531 L 14.574219 41.699219 L 17.644531 35.480469 L 21.214844 30.0625 L 25.335938 25.335938 L 30.0625 21.214844 L 35.480469 17.644531 L 41.699219 14.574219 L 48.894531 11.96875 L 57.300781 9.800781 L 67.332031 8.054688 L 79.699219 6.710938 L 95.917969 5.757812 L 120.332031 5.1875 L 249.972656 5 L 379.667969 5.1875 L 404.082031 5.757812 L 420.300781 6.710938 L 432.667969 8.054688 L 442.699219 9.800781 L 451.105469 11.96875 L 458.300781 14.574219 L 464.519531 17.644531 L 469.9375 21.214844 L 474.664062 25.335938 L 478.785156 30.0625 L 482.355469 35.480469 L 485.425781 41.699219 L 488.03125 48.894531 L 490.199219 57.300781 L 491.945312 67.332031 L 493.289062 79.699219 L 494.242188 95.917969 L 494.8125 120.332031 L 495 249.96875 Z M 495 250 "/>
</clipPath>
<clipPath id="clip23">
  <path d="M 77 134 L 143 134 L 143 203 L 77 203 Z M 77 134 "/>
</clipPath>
<clipPath id="clip24">
  <path d="M 495 250 L 494.8125 379.667969 L 494.242188 404.082031 L 493.289062 420.300781 L 491.945312 432.667969 L 490.199219 442.699219 L 488.03125 451.105469 L 485.425781 458.300781 L 482.355469 464.519531 L 478.785156 469.9375 L 474.664062 474.664062 L 469.9375 478.785156 L 464.519531 482.355469 L 458.300781 485.425781 L 451.105469 488.03125 L 442.699219 490.199219 L 432.667969 491.945312 L 420.300781 493.289062 L 404.082031 494.242188 L 379.667969 494.8125 L 250.023438 495 L 120.332031 494.8125 L 95.917969 494.242188 L 79.699219 493.289062 L 67.332031 491.945312 L 57.300781 490.199219 L 48.894531 488.03125 L 41.699219 485.425781 L 35.480469 482.355469 L 30.0625 478.785156 L 25.335938 474.664062 L 21.214844 469.9375 L 17.644531 464.519531 L 14.574219 458.300781 L 11.96875 451.105469 L 9.800781 442.699219 L 8.054688 432.667969 L 6.710938 420.300781 L 5.757812 404.082031 L 5.1875 379.667969 L 5 250.027344 L 5.1875 120.332031 L 5.757812 95.917969 L 6.710938 79.699219 L 8.054688 67.332031 L 9.800781 57.300781 L 11.96875 48.894531 L 14.574219 41.699219 L 17.644531 35.480469 L 21.214844 30.0625 L 25.335938 25.335938 L 30.0625 21.214844 L 35.480469 17.644531 L 41.699219 14.574219 L 48.894531 11.96875 L 57.300781 9.800781 L 67.332031 8.054688 L 79.699219 6.710938 L 95.917969 5.757812 L 120.332031 5.1875 L 249.972656 5 L 379.667969 5.1875 L 404.082031 5.757812 L 420.300781 6.710938 L 432.667969 8.054688 L 442.699219 9.800781 L 451.105469 11.96875 L 458.300781 14.574219 L 464.519531 17.644531 L 469.9375 21.214844 L 474.664062 25.335938 L 478.785156 30.0625 L 482.355469 35.480469 L 485.425781 41.699219 L 488.03125 48.894531 L 490.199219 57.300781 L 491.945312 67.332031 L 493.289062 79.699219 L 494.242188 95.917969 L 494.8125 120.332031 L 495 249.96875 Z M 495 250 "/>
</clipPath>
<clipPath id="clip25">
  <path d="M 35 92 L 185 92 L 185 245 L 35 245 Z M 35 92 "/>
</clipPath>
<clipPath id="clip26">
  <path d="M 495 250 L 494.8125 379.667969 L 494.242188 404.082031 L 493.289062 420.300781 L 491.945312 432.667969 L 490.199219 442.699219 L 488.03125 451.105469 L 485.425781 458.300781 L 482.355469 464.519531 L 478.785156 469.9375 L 474.664062 474.664062 L 469.9375 478.785156 L 464.519531 482.355469 L 458.300781 485.425781 L 451.105469 488.03125 L 442.699219 490.199219 L 432.667969 491.945312 L 420.300781 493.289062 L 404.082031 494.242188 L 379.667969 494.8125 L 250.023438 495 L 120.332031 494.8125 L 95.917969 494.242188 L 79.699219 493.289062 L 67.332031 491.945312 L 57.300781 490.199219 L 48.894531 488.03125 L 41.699219 485.425781 L 35.480469 482.355469 L 30.0625 478.785156 L 25.335938 474.664062 L 21.214844 469.9375 L 17.644531 464.519531 L 14.574219 458.300781 L 11.96875 451.105469 L 9.800781 442.699219 L 8.054688 432.667969 L 6.710938 420.300781 L 5.757812 404.082031 L 5.1875 379.667969 L 5 250.027344 L 5.1875 120.332031 L 5.757812 95.917969 L 6.710938 79.699219 L 8.054688 67.332031 L 9.800781 57.300781 L 11.96875 48.894531 L 14.574219 41.699219 L 17.644531 35.480469 L 21.214844 30.0625 L 25.335938 25.335938 L 30.0625 21.214844 L 35.480469 17.644531 L 41.699219 14.574219 L 48.894531 11.96875 L 57.300781 9.800781 L 67.332031 8.054688 L 79.699219 6.710938 L 95.917969 5.757812 L 120.332031 5.1875 L 249.972656 5 L 379.667969 5.1875 L 404.082031 5.757812 L 420.300781 6.710938 L 432.667969 8.054688 L 442.699219 9.800781 L 451.105469 11.96875 L 458.300781 14.574219 L 464.519531 17.644531 L 469.9375 21.214844 L 474.664062 25.335938 L 478.785156 30.0625 L 482.355469 35.480469 L 485.425781 41.699219 L 488.03125 48.894531 L 490.199219 57.300781 L 491.945312 67.332031 L 493.289062 79.699219 L 494.242188 95.917969 L 494.8125 120.332031 L 495 249.96875 Z M 495 250 "/>
</clipPath>
<clipPath id="clip27">
  <path d="M 120 53 L 197 53 L 197 109 L 120 109 Z M 120 53 "/>
</clipPath>
<clipPath id="clip28">
  <path d="M 495 250 L 494.8125 379.667969 L 494.242188 404.082031 L 493.289062 420.300781 L 491.945312 432.667969 L 490.199219 442.699219 L 488.03125 451.105469 L 485.425781 458.300781 L 482.355469 464.519531 L 478.785156 469.9375 L 474.664062 474.664062 L 469.9375 478.785156 L 464.519531 482.355469 L 458.300781 485.425781 L 451.105469 488.03125 L 442.699219 490.199219 L 432.667969 491.945312 L 420.300781 493.289062 L 404.082031 494.242188 L 379.667969 494.8125 L 250.023438 495 L 120.332031 494.8125 L 95.917969 494.242188 L 79.699219 493.289062 L 67.332031 491.945312 L 57.300781 490.199219 L 48.894531 488.03125 L 41.699219 485.425781 L 35.480469 482.355469 L 30.0625 478.785156 L 25.335938 474.664062 L 21.214844 469.9375 L 17.644531 464.519531 L 14.574219 458.300781 L 11.96875 451.105469 L 9.800781 442.699219 L 8.054688 432.667969 L 6.710938 420.300781 L 5.757812 404.082031 L 5.1875 379.667969 L 5 250.027344 L 5.1875 120.332031 L 5.757812 95.917969 L 6.710938 79.699219 L 8.054688 67.332031 L 9.800781 57.300781 L 11.96875 48.894531 L 14.574219 41.699219 L 17.644531 35.480469 L 21.214844 30.0625 L 25.335938 25.335938 L 30.0625 21.214844 L 35.480469 17.644531 L 41.699219 14.574219 L 48.894531 11.96875 L 57.300781 9.800781 L 67.332031 8.054688 L 79.699219 6.710938 L 95.917969 5.757812 L 120.332031 5.1875 L 249.972656 5 L 379.667969 5.1875 L 404.082031 5.757812 L 420.300781 6.710938 L 432.667969 8.054688 L 442.699219 9.800781 L 451.105469 11.96875 L 458.300781 14.574219 L 464.519531 17.644531 L 469.9375 21.214844 L 474.664062 25.335938 L 478.785156 30.0625 L 482.355469 35.480469 L 485.425781 41.699219 L 488.03125 48.894531 L 490.199219 57.300781 L 491.945312 67.332031 L 493.289062 79.699219 L 494.242188 95.917969 L 494.8125 120.332031 L 495 249.96875 Z M 495 250 "/>
</clipPath>
<clipPath id="clip29">
  <path d="M 78 11 L 239 11 L 239 151 L 78 151 Z M 78 11 "/>
</clipPath>
<clipPath id="clip30">
  <path d="M 495 250 L 494.8125 379.667969 L 494.242188 404.082031 L 493.289062 420.300781 L 491.945312 432.667969 L 490.199219 442.699219 L 488.03125 451.105469 L 485.425781 458.300781 L 482.355469 464.519531 L 478.785156 469.9375 L 474.664062 474.664062 L 469.9375 478.785156 L 464.519531 482.355469 L 458.300781 485.425781 L 451.105469 488.03125 L 442.699219 490.199219 L 432.667969 491.945312 L 420.300781 493.289062 L 404.082031 494.242188 L 379.667969 494.8125 L 250.023438 495 L 120.332031 494.8125 L 95.917969 494.242188 L 79.699219 493.289062 L 67.332031 491.945312 L 57.300781 490.199219 L 48.894531 488.03125 L 41.699219 485.425781 L 35.480469 482.355469 L 30.0625 478.785156 L 25.335938 474.664062 L 21.214844 469.9375 L 17.644531 464.519531 L 14.574219 458.300781 L 11.96875 451.105469 L 9.800781 442.699219 L 8.054688 432.667969 L 6.710938 420.300781 L 5.757812 404.082031 L 5.1875 379.667969 L 5 250.027344 L 5.1875 120.332031 L 5.757812 95.917969 L 6.710938 79.699219 L 8.054688 67.332031 L 9.800781 57.300781 L 11.96875 48.894531 L 14.574219 41.699219 L 17.644531 35.480469 L 21.214844 30.0625 L 25.335938 25.335938 L 30.0625 21.214844 L 35.480469 17.644531 L 41.699219 14.574219 L 48.894531 11.96875 L 57.300781 9.800781 L 67.332031 8.054688 L 79.699219 6.710938 L 95.917969 5.757812 L 120.332031 5.1875 L 249.972656 5 L 379.667969 5.1875 L 404.082031 5.757812 L 420.300781 6.710938 L 432.667969 8.054688 L 442.699219 9.800781 L 451.105469 11.96875 L 458.300781 14.574219 L 464.519531 17.644531 L 469.9375 21.214844 L 474.664062 25.335938 L 478.785156 30.0625 L 482.355469 35.480469 L 485.425781 41.699219 L 488.03125 48.894531 L 490.199219 57.300781 L 491.945312 67.332031 L 493.289062 79.699219 L 494.242188 95.917969 L 494.8125 120.332031 L 495 249.96875 Z M 495 250 "/>
</clipPath>
<clipPath id="clip31">
  <path d="M 174 134 L 240 134 L 240 203 L 174 203 Z M 174 134 "/>
</clipPath>
<clipPath id="clip32">
  <path d="M 495 250 L 494.8125 379.667969 L 494.242188 404.082031 L 493.289062 420.300781 L 491.945312 432.667969 L 490.199219 442.699219 L 488.03125 451.105469 L 485.425781 458.300781 L 482.355469 464.519531 L 478.785156 469.9375 L 474.664062 474.664062 L 469.9375 478.785156 L 464.519531 482.355469 L 458.300781 485.425781 L 451.105469 488.03125 L 442.699219 490.199219 L 432.667969 491.945312 L 420.300781 493.289062 L 404.082031 494.242188 L 379.667969 494.8125 L 250.023438 495 L 120.332031 494.8125 L 95.917969 494.242188 L 79.699219 493.289062 L 67.332031 491.945312 L 57.300781 490.199219 L 48.894531 488.03125 L 41.699219 485.425781 L 35.480469 482.355469 L 30.0625 478.785156 L 25.335938 474.664062 L 21.214844 469.9375 L 17.644531 464.519531 L 14.574219 458.300781 L 11.96875 451.105469 L 9.800781 442.699219 L 8.054688 432.667969 L 6.710938 420.300781 L 5.757812 404.082031 L 5.1875 379.667969 L 5 250.027344 L 5.1875 120.332031 L 5.757812 95.917969 L 6.710938 79.699219 L 8.054688 67.332031 L 9.800781 57.300781 L 11.96875 48.894531 L 14.574219 41.699219 L 17.644531 35.480469 L 21.214844 30.0625 L 25.335938 25.335938 L 30.0625 21.214844 L 35.480469 17.644531 L 41.699219 14.574219 L 48.894531 11.96875 L 57.300781 9.800781 L 67.332031 8.054688 L 79.699219 6.710938 L 95.917969 5.757812 L 120.332031 5.1875 L 249.972656 5 L 379.667969 5.1875 L 404.082031 5.757812 L 420.300781 6.710938 L 432.667969 8.054688 L 442.699219 9.800781 L 451.105469 11.96875 L 458.300781 14.574219 L 464.519531 17.644531 L 469.9375 21.214844 L 474.664062 25.335938 L 478.785156 30.0625 L 482.355469 35.480469 L 485.425781 41.699219 L 488.03125 48.894531 L 490.199219 57.300781 L 491.945312 67.332031 L 493.289062 79.699219 L 494.242188 95.917969 L 494.8125 120.332031 L 495 249.96875 Z M 495 250 "/>
</clipPath>
<clipPath id="clip33">
  <path d="M 132 92 L 282 92 L 282 245 L 132 245 Z M 132 92 "/>
</clipPath>
<clipPath id="clip34">
  <path d="M 495 250 L 494.8125 379.667969 L 494.242188 404.082031 L 493.289062 420.300781 L 491.945312 432.667969 L 490.199219 442.699219 L 488.03125 451.105469 L 485.425781 458.300781 L 482.355469 464.519531 L 478.785156 469.9375 L 474.664062 474.664062 L 469.9375 478.785156 L 464.519531 482.355469 L 458.300781 485.425781 L 451.105469 488.03125 L 442.699219 490.199219 L 432.667969 491.945312 L 420.300781 493.289062 L 404.082031 494.242188 L 379.667969 494.8125 L 250.023438 495 L 120.332031 494.8125 L 95.917969 494.242188 L 79.699219 493.289062 L 67.332031 491.945312 L 57.300781 490.199219 L 48.894531 488.03125 L 41.699219 485.425781 L 35.480469 482.355469 L 30.0625 478.785156 L 25.335938 474.664062 L 21.214844 469.9375 L 17.644531 464.519531 L 14.574219 458.300781 L 11.96875 451.105469 L 9.800781 442.699219 L 8.054688 432.667969 L 6.710938 420.300781 L 5.757812 404.082031 L 5.1875 379.667969 L 5 250.027344 L 5.1875 120.332031 L 5.757812 95.917969 L 6.710938 79.699219 L 8.054688 67.332031 L 9.800781 57.300781 L 11.96875 48.894531 L 14.574219 41.699219 L 17.644531 35.480469 L 21.214844 30.0625 L 25.335938 25.335938 L 30.0625 21.214844 L 35.480469 17.644531 L 41.699219 14.574219 L 48.894531 11.96875 L 57.300781 9.800781 L 67.332031 8.054688 L 79.699219 6.710938 L 95.917969 5.757812 L 120.332031 5.1875 L 249.972656 5 L 379.667969 5.1875 L 404.082031 5.757812 L 420.300781 6.710938 L 432.667969 8.054688 L 442.699219 9.800781 L 451.105469 11.96875 L 458.300781 14.574219 L 464.519531 17.644531 L 469.9375 21.214844 L 474.664062 25.335938 L 478.785156 30.0625 L 482.355469 35.480469 L 485.425781 41.699219 L 488.03125 48.894531 L 490.199219 57.300781 L 491.945312 67.332031 L 493.289062 79.699219 L 494.242188 95.917969 L 494.8125 120.332031 L 495 249.96875 Z M 495 250 "/>
</clipPath>
<clipPath id="clip35">
  <path d="M 267 159 L 449 159 L 449 341 L 267 341 Z M 267 159 "/>
</clipPath>
<clipPath id="clip36">
  <path d="M 495 250 L 494.8125 379.667969 L 494.242188 404.082031 L 493.289062 420.300781 L 491.945312 432.667969 L 490.199219 442.699219 L 488.03125 451.105469 L 485.425781 458.300781 L 482.355469 464.519531 L 478.785156 469.9375 L 474.664062 474.664062 L 469.9375 478.785156 L 464.519531 482.355469 L 458.300781 485.425781 L 451.105469 488.03125 L 442.699219 490.199219 L 432.667969 491.945312 L 420.300781 493.289062 L 404.082031 494.242188 L 379.667969 494.8125 L 250.023438 495 L 120.332031 494.8125 L 95.917969 494.242188 L 79.699219 493.289062 L 67.332031 491.945312 L 57.300781 490.199219 L 48.894531 488.03125 L 41.699219 485.425781 L 35.480469 482.355469 L 30.0625 478.785156 L 25.335938 474.664062 L 21.214844 469.9375 L 17.644531 464.519531 L 14.574219 458.300781 L 11.96875 451.105469 L 9.800781 442.699219 L 8.054688 432.667969 L 6.710938 420.300781 L 5.757812 404.082031 L 5.1875 379.667969 L 5 250.027344 L 5.1875 120.332031 L 5.757812 95.917969 L 6.710938 79.699219 L 8.054688 67.332031 L 9.800781 57.300781 L 11.96875 48.894531 L 14.574219 41.699219 L 17.644531 35.480469 L 21.214844 30.0625 L 25.335938 25.335938 L 30.0625 21.214844 L 35.480469 17.644531 L 41.699219 14.574219 L 48.894531 11.96875 L 57.300781 9.800781 L 67.332031 8.054688 L 79.699219 6.710938 L 95.917969 5.757812 L 120.332031 5.1875 L 249.972656 5 L 379.667969 5.1875 L 404.082031 5.757812 L 420.300781 6.710938 L 432.667969 8.054688 L 442.699219 9.800781 L 451.105469 11.96875 L 458.300781 14.574219 L 464.519531 17.644531 L 469.9375 21.214844 L 474.664062 25.335938 L 478.785156 30.0625 L 482.355469 35.480469 L 485.425781 41.699219 L 488.03125 48.894531 L 490.199219 57.300781 L 491.945312 67.332031 L 493.289062 79.699219 L 494.242188 95.917969 L 494.8125 120.332031 L 495 249.96875 Z M 495 250 "/>
</clipPath>
<clipPath id="clip37">
  <path d="M 225 117 L 491 117 L 491 383 L 225 383 Z M 225 117 "/>
</clipPath>
<clipPath id="clip38">
  <path d="M 495 250 L 494.8125 379.667969 L 494.242188 404.082031 L 493.289062 420.300781 L 491.945312 432.667969 L 490.199219 442.699219 L 488.03125 451.105469 L 485.425781 458.300781 L 482.355469 464.519531 L 478.785156 469.9375 L 474.664062 474.664062 L 469.9375 478.785156 L 464.519531 482.355469 L 458.300781 485.425781 L 451.105469 488.03125 L 442.699219 490.199219 L 432.667969 491.945312 L 420.300781 493.289062 L 404.082031 494.242188 L 379.667969 494.8125 L 250.023438 495 L 120.332031 494.8125 L 95.917969 494.242188 L 79.699219 493.289062 L 67.332031 491.945312 L 57.300781 490.199219 L 48.894531 488.03125 L 41.699219 485.425781 L 35.480469 482.355469 L 30.0625 478.785156 L 25.335938 474.664062 L 21.214844 469.9375 L 17.644531 464.519531 L 14.574219 458.300781 L 11.96875 451.105469 L 9.800781 442.699219 L 8.054688 432.667969 L 6.710938 420.300781 L 5.757812 404.082031 L 5.1875 379.667969 L 5 250.027344 L 5.1875 120.332031 L 5.757812 95.917969 L 6.710938 79.699219 L 8.054688 67.332031 L 9.800781 57.300781 L 11.96875 48.894531 L 14.574219 41.699219 L 17.644531 35.480469 L 21.214844 30.0625 L 25.335938 25.335938 L 30.0625 21.214844 L 35.480469 17.644531 L 41.699219 14.574219 L 48.894531 11.96875 L 57.300781 9.800781 L 67.332031 8.054688 L 79.699219 6.710938 L 95.917969 5.757812 L 120.332031 5.1875 L 249.972656 5 L 379.667969 5.1875 L 404.082031 5.757812 L 420.300781 6.710938 L 432.667969 8.054688 L 442.699219 9.800781 L 451.105469 11.96875 L 458.300781 14.574219 L 464.519531 17.644531 L 469.9375 21.214844 L 474.664062 25.335938 L 478.785156 30.0625 L 482.355469 35.480469 L 485.425781 41.699219 L 488.03125 48.894531 L 490.199219 57.300781 L 491.945312 67.332031 L 493.289062 79.699219 L 494.242188 95.917969 L 494.8125 120.332031 L 495 249.96875 Z M 495 250 "/>
</clipPath>
<clipPath id="clip39">
  <path d="M 277 250 L 342 250 L 342 318 L 277 318 Z M 277 250 "/>
</clipPath>
<clipPath id="clip40">
  <path d="M 495 250 L 494.8125 379.667969 L 494.242188 404.082031 L 493.289062 420.300781 L 491.945312 432.667969 L 490.199219 442.699219 L 488.03125 451.105469 L 485.425781 458.300781 L 482.355469 464.519531 L 478.785156 469.9375 L 474.664062 474.664062 L 469.9375 478.785156 L 464.519531 482.355469 L 458.300781 485.425781 L 451.105469 488.03125 L 442.699219 490.199219 L 432.667969 491.945312 L 420.300781 493.289062 L 404.082031 494.242188 L 379.667969 494.8125 L 250.023438 495 L 120.332031 494.8125 L 95.917969 494.242188 L 79.699219 493.289062 L 67.332031 491.945312 L 57.300781 490.199219 L 48.894531 488.03125 L 41.699219 485.425781 L 35.480469 482.355469 L 30.0625 478.785156 L 25.335938 474.664062 L 21.214844 469.9375 L 17.644531 464.519531 L 14.574219 458.300781 L 11.96875 451.105469 L 9.800781 442.699219 L 8.054688 432.667969 L 6.710938 420.300781 L 5.757812 404.082031 L 5.1875 379.667969 L 5 250.027344 L 5.1875 120.332031 L 5.757812 95.917969 L 6.710938 79.699219 L 8.054688 67.332031 L 9.800781 57.300781 L 11.96875 48.894531 L 14.574219 41.699219 L 17.644531 35.480469 L 21.214844 30.0625 L 25.335938 25.335938 L 30.0625 21.214844 L 35.480469 17.644531 L 41.699219 14.574219 L 48.894531 11.96875 L 57.300781 9.800781 L 67.332031 8.054688 L 79.699219 6.710938 L 95.917969 5.757812 L 120.332031 5.1875 L 249.972656 5 L 379.667969 5.1875 L 404.082031 5.757812 L 420.300781 6.710938 L 432.667969 8.054688 L 442.699219 9.800781 L 451.105469 11.96875 L 458.300781 14.574219 L 464.519531 17.644531 L 469.9375 21.214844 L 474.664062 25.335938 L 478.785156 30.0625 L 482.355469 35.480469 L 485.425781 41.699219 L 488.03125 48.894531 L 490.199219 57.300781 L 491.945312 67.332031 L 493.289062 79.699219 L 494.242188 95.917969 L 494.8125 120.332031 L 495 249.96875 Z M 495 250 "/>
</clipPath>
<clipPath id="clip41">
  <path d="M 234 207 L 384 207 L 384 360 L 234 360 Z M 234 207 "/>
</clipPath>
<clipPath id="clip42">
  <path d="M 495 250 L 494.8125 379.667969 L 494.242188 404.082031 L 493.289062 420.300781 L 491.945312 432.667969 L 490.199219 442.699219 L 488.03125 451.105469 L 485.425781 458.300781 L 482.355469 464.519531 L 478.785156 469.9375 L 474.664062 474.664062 L 469.9375 478.785156 L 464.519531 482.355469 L 458.300781 485.425781 L 451.105469 488.03125 L 442.699219 490.199219 L 432.667969 491.945312 L 420.300781 493.289062 L 404.082031 494.242188 L 379.667969 494.8125 L 250.023438 495 L 120.332031 494.8125 L 95.917969 494.242188 L 79.699219 493.289062 L 67.332031 491.945312 L 57.300781 490.199219 L 48.894531 488.03125 L 41.699219 485.425781 L 35.480469 482.355469 L 30.0625 478.785156 L 25.335938 474.664062 L 21.214844 469.9375 L 17.644531 464.519531 L 14.574219 458.300781 L 11.96875 451.105469 L 9.800781 442.699219 L 8.054688 432.667969 L 6.710938 420.300781 L 5.757812 404.082031 L 5.1875 379.667969 L 5 250.027344 L 5.1875 120.332031 L 5.757812 95.917969 L 6.710938 79.699219 L 8.054688 67.332031 L 9.800781 57.300781 L 11.96875 48.894531 L 14.574219 41.699219 L 17.644531 35.480469 L 21.214844 30.0625 L 25.335938 25.335938 L 30.0625 21.214844 L 35.480469 17.644531 L 41.699219 14.574219 L 48.894531 11.96875 L 57.300781 9.800781 L 67.332031 8.054688 L 79.699219 6.710938 L 95.917969 5.757812 L 120.332031 5.1875 L 249.972656 5 L 379.667969 5.1875 L 404.082031 5.757812 L 420.300781 6.710938 L 432.667969 8.054688 L 442.699219 9.800781 L 451.105469 11.96875 L 458.300781 14.574219 L 464.519531 17.644531 L 469.9375 21.214844 L 474.664062 25.335938 L 478.785156 30.0625 L 482.355469 35.480469 L 485.425781 41.699219 L 488.03125 48.894531 L 490.199219 57.300781 L 491.945312 67.332031 L 493.289062 79.699219 L 494.242188 95.917969 L 494.8125 120.332031 L 495 249.96875 Z M 495 250 "/>
</clipPath>
<clipPath id="clip43">
  <path d="M 320 168 L 396 168 L 396 224 L 320 224 Z M 320 168 "/>
</clipPath>
<clipPath id="clip44">
  <path d="M 495 250 L 494.8125 379.667969 L 494.242188 404.082031 L 493.289062 420.300781 L 491.945312 432.667969 L 490.199219 442.699219 L 488.03125 451.105469 L 485.425781 458.300781 L 482.355469 464.519531 L 478.785156 469.9375 L 474.664062 474.664062 L 469.9375 478.785156 L 464.519531 482.355469 L 458.300781 485.425781 L 451.105469 488.03125 L 442.699219 490.199219 L 432.667969 491.945312 L 420.300781 493.289062 L 404.082031 494.242188 L 379.667969 494.8125 L 250.023438 495 L 120.332031 494.8125 L 95.917969 494.242188 L 79.699219 493.289062 L 67.332031 491.945312 L 57.300781 490.199219 L 48.894531 488.03125 L 41.699219 485.425781 L 35.480469 482.355469 L 30.0625 478.785156 L 25.335938 474.664062 L 21.214844 469.9375 L 17.644531 464.519531 L 14.574219 458.300781 L 11.96875 451.105469 L 9.800781 442.699219 L 8.054688 432.667969 L 6.710938 420.300781 L 5.757812 404.082031 L 5.1875 379.667969 L 5 250.027344 L 5.1875 120.332031 L 5.757812 95.917969 L 6.710938 79.699219 L 8.054688 67.332031 L 9.800781 57.300781 L 11.96875 48.894531 L 14.574219 41.699219 L 17.644531 35.480469 L 21.214844 30.0625 L 25.335938 25.335938 L 30.0625 21.214844 L 35.480469 17.644531 L 41.699219 14.574219 L 48.894531 11.96875 L 57.300781 9.800781 L 67.332031 8.054688 L 79.699219 6.710938 L 95.917969 5.757812 L 120.332031 5.1875 L 249.972656 5 L 379.667969 5.1875 L 404.082031 5.757812 L 420.300781 6.710938 L 432.667969 8.054688 L 442.699219 9.800781 L 451.105469 11.96875 L 458.300781 14.574219 L 464.519531 17.644531 L 469.9375 21.214844 L 474.664062 25.335938 L 478.785156 30.0625 L 482.355469 35.480469 L 485.425781 41.699219 L 488.03125 48.894531 L 490.199219 57.300781 L 491.945312 67.332031 L 493.289062 79.699219 L 494.242188 95.917969 L 494.8125 120.332031 L 495 249.96875 Z M 495 250 "/>
</clipPath>
<clipPath id="clip45">
  <path d="M 277 126 L 439 126 L 439 266 L 277 266 Z M 277 126 "/>
</clipPath>
<clipPath id="clip46">
  <path d="M 495 250 L 494.8125 379.667969 L 494.242188 404.082031 L 493.289062 420.300781 L 491.945312 432.667969 L 490.199219 442.699219 L 488.03125 451.105469 L 485.425781 458.300781 L 482.355469 464.519531 L 478.785156 469.9375 L 474.664062 474.664062 L 469.9375 478.785156 L 464.519531 482.355469 L 458.300781 485.425781 L 451.105469 488.03125 L 442.699219 490.199219 L 432.667969 491.945312 L 420.300781 493.289062 L 404.082031 494.242188 L 379.667969 494.8125 L 250.023438 495 L 120.332031 494.8125 L 95.917969 494.242188 L 79.699219 493.289062 L 67.332031 491.945312 L 57.300781 490.199219 L 48.894531 488.03125 L 41.699219 485.425781 L 35.480469 482.355469 L 30.0625 478.785156 L 25.335938 474.664062 L 21.214844 469.9375 L 17.644531 464.519531 L 14.574219 458.300781 L 11.96875 451.105469 L 9.800781 442.699219 L 8.054688 432.667969 L 6.710938 420.300781 L 5.757812 404.082031 L 5.1875 379.667969 L 5 250.027344 L 5.1875 120.332031 L 5.757812 95.917969 L 6.710938 79.699219 L 8.054688 67.332031 L 9.800781 57.300781 L 11.96875 48.894531 L 14.574219 41.699219 L 17.644531 35.480469 L 21.214844 30.0625 L 25.335938 25.335938 L 30.0625 21.214844 L 35.480469 17.644531 L 41.699219 14.574219 L 48.894531 11.96875 L 57.300781 9.800781 L 67.332031 8.054688 L 79.699219 6.710938 L 95.917969 5.757812 L 120.332031 5.1875 L 249.972656 5 L 379.667969 5.1875 L 404.082031 5.757812 L 420.300781 6.710938 L 432.667969 8.054688 L 442.699219 9.800781 L 451.105469 11.96875 L 458.300781 14.574219 L 464.519531 17.644531 L 469.9375 21.214844 L 474.664062 25.335938 L 478.785156 30.0625 L 482.355469 35.480469 L 485.425781 41.699219 L 488.03125 48.894531 L 490.199219 57.300781 L 491.945312 67.332031 L 493.289062 79.699219 L 494.242188 95.917969 L 494.8125 120.332031 L 495 249.96875 Z M 495 250 "/>
</clipPath>
<clipPath id="clip47">
  <path d="M 374 250 L 439 250 L 439 318 L 374 318 Z M 374 250 "/>
</clipPath>
<clipPath id="clip48">
  <path d="M 495 250 L 494.8125 379.667969 L 494.242188 404.082031 L 493.289062 420.300781 L 491.945312 432.667969 L 490.199219 442.699219 L 488.03125 451.105469 L 485.425781 458.300781 L 482.355469 464.519531 L 478.785156 469.9375 L 474.664062 474.664062 L 469.9375 478.785156 L 464.519531 482.355469 L 458.300781 485.425781 L 451.105469 488.03125 L 442.699219 490.199219 L 432.667969 491.945312 L 420.300781 493.289062 L 404.082031 494.242188 L 379.667969 494.8125 L 250.023438 495 L 120.332031 494.8125 L 95.917969 494.242188 L 79.699219 493.289062 L 67.332031 491.945312 L 57.300781 490.199219 L 48.894531 488.03125 L 41.699219 485.425781 L 35.480469 482.355469 L 30.0625 478.785156 L 25.335938 474.664062 L 21.214844 469.9375 L 17.644531 464.519531 L 14.574219 458.300781 L 11.96875 451.105469 L 9.800781 442.699219 L 8.054688 432.667969 L 6.710938 420.300781 L 5.757812 404.082031 L 5.1875 379.667969 L 5 250.027344 L 5.1875 120.332031 L 5.757812 95.917969 L 6.710938 79.699219 L 8.054688 67.332031 L 9.800781 57.300781 L 11.96875 48.894531 L 14.574219 41.699219 L 17.644531 35.480469 L 21.214844 30.0625 L 25.335938 25.335938 L 30.0625 21.214844 L 35.480469 17.644531 L 41.699219 14.574219 L 48.894531 11.96875 L 57.300781 9.800781 L 67.332031 8.054688 L 79.699219 6.710938 L 95.917969 5.757812 L 120.332031 5.1875 L 249.972656 5 L 379.667969 5.1875 L 404.082031 5.757812 L 420.300781 6.710938 L 432.667969 8.054688 L 442.699219 9.800781 L 451.105469 11.96875 L 458.300781 14.574219 L 464.519531 17.644531 L 469.9375 21.214844 L 474.664062 25.335938 L 478.785156 30.0625 L 482.355469 35.480469 L 485.425781 41.699219 L 488.03125 48.894531 L 490.199219 57.300781 L 491.945312 67.332031 L 493.289062 79.699219 L 494.242188 95.917969 L 494.8125 120.332031 L 495 249.96875 Z M 495 250 "/>
</clipPath>
<clipPath id="clip49">
  <path d="M 332 207 L 482 207 L 482 360 L 332 360 Z M 332 207 "/>
</clipPath>
<clipPath id="clip50">
  <path d="M 495 250 L 494.8125 379.667969 L 494.242188 404.082031 L 493.289062 420.300781 L 491.945312 432.667969 L 490.199219 442.699219 L 488.03125 451.105469 L 485.425781 458.300781 L 482.355469 464.519531 L 478.785156 469.9375 L 474.664062 474.664062 L 469.9375 478.785156 L 464.519531 482.355469 L 458.300781 485.425781 L 451.105469 488.03125 L 442.699219 490.199219 L 432.667969 491.945312 L 420.300781 493.289062 L 404.082031 494.242188 L 379.667969 494.8125 L 250.023438 495 L 120.332031 494.8125 L 95.917969 494.242188 L 79.699219 493.289062 L 67.332031 491.945312 L 57.300781 490.199219 L 48.894531 488.03125 L 41.699219 485.425781 L 35.480469 482.355469 L 30.0625 478.785156 L 25.335938 474.664062 L 21.214844 469.9375 L 17.644531 464.519531 L 14.574219 458.300781 L 11.96875 451.105469 L 9.800781 442.699219 L 8.054688 432.667969 L 6.710938 420.300781 L 5.757812 404.082031 L 5.1875 379.667969 L 5 250.027344 L 5.1875 120.332031 L 5.757812 95.917969 L 6.710938 79.699219 L 8.054688 67.332031 L 9.800781 57.300781 L 11.96875 48.894531 L 14.574219 41.699219 L 17.644531 35.480469 L 21.214844 30.0625 L 25.335938 25.335938 L 30.0625 21.214844 L 35.480469 17.644531 L 41.699219 14.574219 L 48.894531 11.96875 L 57.300781 9.800781 L 67.332031 8.054688 L 79.699219 6.710938 L 95.917969 5.757812 L 120.332031 5.1875 L 249.972656 5 L 379.667969 5.1875 L 404.082031 5.757812 L 420.300781 6.710938 L 432.667969 8.054688 L 442.699219 9.800781 L 451.105469 11.96875 L 458.300781 14.574219 L 464.519531 17.644531 L 469.9375 21.214844 L 474.664062 25.335938 L 478.785156 30.0625 L 482.355469 35.480469 L 485.425781 41.699219 L 488.03125 48.894531 L 490.199219 57.300781 L 491.945312 67.332031 L 493.289062 79.699219 L 494.242188 95.917969 L 494.8125 120.332031 L 495 249.96875 Z M 495 250 "/>
</clipPath>
<clipPath id="clip51">
  <path d="M 5 5 L 495 5 L 495 495 L 5 495 Z M 5 5 "/>
</clipPath>
<clipPath id="clip52">
  <path d="M 495 250 L 494.8125 379.667969 L 494.242188 404.082031 L 493.289062 420.300781 L 491.945312 432.667969 L 490.199219 442.699219 L 488.03125 451.105469 L 485.425781 458.300781 L 482.355469 464.519531 L 478.785156 469.9375 L 474.664062 474.664062 L 469.9375 478.785156 L 464.519531 482.355469 L 458.300781 485.425781 L 451.105469 488.03125 L 442.699219 490.199219 L 432.667969 491.945312 L 420.300781 493.289062 L 404.082031 494.242188 L 379.667969 494.8125 L 250.023438 495 L 120.332031 494.8125 L 95.917969 494.242188 L 79.699219 493.289062 L 67.332031 491.945312 L 57.300781 490.199219 L 48.894531 488.03125 L 41.699219 485.425781 L 35.480469 482.355469 L 30.0625 478.785156 L 25.335938 474.664062 L 21.214844 469.9375 L 17.644531 464.519531 L 14.574219 458.300781 L 11.96875 451.105469 L 9.800781 442.699219 L 8.054688 432.667969 L 6.710938 420.300781 L 5.757812 404.082031 L 5.1875 379.667969 L 5 250.027344 L 5.1875 120.332031 L 5.757812 95.917969 L 6.710938 79.699219 L 8.054688 67.332031 L 9.800781 57.300781 L 11.96875 48.894531 L 14.574219 41.699219 L 17.644531 35.480469 L 21.214844 30.0625 L 25.335938 25.335938 L 30.0625 21.214844 L 35.480469 17.644531 L 41.699219 14.574219 L 48.894531 11.96875 L 57.300781 9.800781 L 67.332031 8.054688 L 79.699219 6.710938 L 95.917969 5.757812 L 120.332031 5.1875 L 249.972656 5 L 379.667969 5.1875 L 404.082031 5.757812 L 420.300781 6.710938 L 432.667969 8.054688 L 442.699219 9.800781 L 451.105469 11.96875 L 458.300781 14.574219 L 464.519531 17.644531 L 469.9375 21.214844 L 474.664062 25.335938 L 478.785156 30.0625 L 482.355469 35.480469 L 485.425781 41.699219 L 488.03125 48.894531 L 490.199219 57.300781 L 491.945312 67.332031 L 493.289062 79.699219 L 494.242188 95.917969 L 494.8125 120.332031 L 495 249.96875 Z M 495 250 "/>
</clipPath>
</defs>
<g id="surface3201">
<g clip-path="url(#clip1)" clip-rule="nonzero">
<g clip-path="url(#clip2)" clip-rule="nonzero">
<rect x="0" y="0" width="500" height="500" style="fill:rgb(0%,0%,0%);fill-opacity:1;stroke:none;"/>
</g>
</g>
<g clip-path="url(#clip3)" clip-rule="nonzero">
<g clip-path="url(#clip4)" clip-rule="nonzero">
<path style=" stroke:none;fill-rule:nonzero;fill:rgb(79.6%,23.5%,20%);fill-opacity:1;" d="M 248.75 365.179688 C 248.75 415.023438 208.34375 455.429688 158.5 455.429688 C 108.65625 455.429688 68.25 415.023438 68.25 365.179688 C 68.25 315.335938 108.65625 274.929688 158.5 274.929688 C 208.34375 274.929688 248.75 315.335938 248.75 365.179688 Z M 248.75 365.179688 "/>
</g>
</g>
<g clip-path="url(#clip5)" clip-rule="nonzero">
<g clip-path="url(#clip6)" clip-rule="nonzero">
<path style="fill:none;stroke-width:3;stroke-linecap:butt;stroke-linejoin:miter;stroke:rgb(20%,20%,20%);stroke-opacity:1;stroke-miterlimit:10;" d="M 248.75 365.179688 C 248.75 415.023438 208.34375 455.429688 158.5 455.429688 C 108.65625 455.429688 68.25 415.023438 68.25 365.179688 C 68.25 315.335938 108.65625 274.929688 158.5 274.929688 C 208.34375 274.929688 248.75 315.335938 248.75 365.179688 Z M 248.75 365.179688 "/>
</g>
</g>
<g clip-path="url(#clip7)" clip-rule="nonzero">
<g clip-path="url(#clip8)" clip-rule="nonzero">
<path style=" stroke:none;fill-rule:nonzero;fill:rgb(0%,0%,0%);fill-opacity:1;" d="M 139.601562 386.515625 C 142.339844 388.941406 142.796875 393.042969 140.65625 396.011719 L 121.449219 429.355469 L 121.441406 429.347656 C 120.386719 430.988281 118.707031 432.125 116.792969 432.492188 C 114.878906 432.859375 112.898438 432.425781 111.3125 431.292969 C 92.1875 417.644531 79.910156 396.378906 77.652344 372.992188 C 77.464844 371.050781 78.078125 369.117188 79.355469 367.644531 C 80.628906 366.171875 82.453125 365.285156 84.402344 365.191406 L 122.875 365.179688 L 122.878906 365.21875 C 126.519531 364.851562 129.84375 367.296875 130.574219 370.882812 C 131.8125 376.933594 134.980469 382.417969 139.601562 386.515625 Z M 139.601562 386.515625 "/>
</g>
</g>
<g clip-path="url(#clip9)" clip-rule="nonzero">
<g clip-path="url(#clip10)" clip-rule="nonzero">
<path style="fill:none;stroke-width:3;stroke-linecap:butt;stroke-linejoin:miter;stroke:rgb(20%,20%,20%);stroke-opacity:1;stroke-miterlimit:10;" d="M 139.601562 386.515625 C 142.339844 388.941406 142.796875 393.042969 140.65625 396.011719 L 121.449219 429.355469 L 121.441406 429.347656 C 120.386719 430.988281 118.707031 432.125 116.792969 432.492188 C 114.878906 432.859375 112.898438 432.425781 111.3125 431.292969 C 92.1875 417.644531 79.910156 396.378906 77.652344 372.992188 C 77.464844 371.050781 78.078125 369.117188 79.355469 367.644531 C 80.628906 366.171875 82.453125 365.285156 84.402344 365.191406 L 122.875 365.179688 L 122.878906 365.21875 C 126.519531 364.851562 129.84375 367.296875 130.574219 370.882812 C 131.8125 376.933594 134.980469 382.417969 139.601562 386.515625 Z M 139.601562 386.515625 "/>
</g>
</g>
<g clip-path="url(#clip11)" clip-rule="nonzero">
<g clip-path="url(#clip12)" clip-rule="nonzero">
<path style=" stroke:none;fill-rule:nonzero;fill:rgb(0%,0%,0%);fill-opacity:1;" d="M 149.472656 338.148438 C 146.003906 339.308594 142.222656 337.648438 140.71875 334.3125 L 121.449219 301.007812 L 121.457031 301.003906 C 120.566406 299.273438 120.421875 297.25 121.0625 295.40625 C 121.699219 293.566406 123.066406 292.066406 124.839844 291.257812 C 146.222656 281.523438 170.777344 281.523438 192.160156 291.257812 C 193.933594 292.066406 195.300781 293.566406 195.9375 295.40625 C 196.578125 297.25 196.433594 299.273438 195.542969 301.003906 L 176.3125 334.328125 L 176.28125 334.3125 C 174.777344 337.648438 170.996094 339.308594 167.527344 338.148438 C 161.667969 336.191406 155.332031 336.191406 149.472656 338.148438 Z M 149.472656 338.148438 "/>
</g>
</g>
<g clip-path="url(#clip13)" clip-rule="nonzero">
<g clip-path="url(#clip14)" clip-rule="nonzero">
<path style="fill:none;stroke-width:3;stroke-linecap:butt;stroke-linejoin:miter;stroke:rgb(20%,20%,20%);stroke-opacity:1;stroke-miterlimit:10;" d="M 149.472656 338.148438 C 146.003906 339.308594 142.222656 337.648438 140.71875 334.3125 L 121.449219 301.007812 L 121.457031 301.003906 C 120.566406 299.273438 120.421875 297.25 121.0625 295.40625 C 121.699219 293.566406 123.066406 292.066406 124.839844 291.257812 C 146.222656 281.523438 170.777344 281.523438 192.160156 291.257812 C 193.933594 292.066406 195.300781 293.566406 195.9375 295.40625 C 196.578125 297.25 196.433594 299.273438 195.542969 301.003906 L 176.3125 334.328125 L 176.28125 334.3125 C 174.777344 337.648438 170.996094 339.308594 167.527344 338.148438 C 161.667969 336.191406 155.332031 336.191406 149.472656 338.148438 Z M 149.472656 338.148438 "/>
</g>
</g>
<g clip-path="url(#clip15)" clip-rule="nonzero">
<g clip-path="url(#clip16)" clip-rule="nonzero">
<path style=" stroke:none;fill-rule:nonzero;fill:rgb(0%,0%,0%);fill-opacity:1;" d="M 186.425781 370.882812 C 187.15625 367.296875 190.480469 364.851562 194.121094 365.21875 L 232.601562 365.179688 L 232.597656 365.191406 C 234.546875 365.285156 236.371094 366.171875 237.644531 367.644531 C 238.921875 369.117188 239.535156 371.050781 239.347656 372.992188 C 237.089844 396.378906 224.8125 417.644531 205.6875 431.292969 C 204.101562 432.425781 202.121094 432.859375 200.207031 432.492188 C 198.292969 432.125 196.613281 430.988281 195.558594 429.347656 L 176.3125 396.035156 L 176.34375 396.011719 C 174.203125 393.042969 174.660156 388.941406 177.398438 386.515625 C 182.019531 382.417969 185.1875 376.933594 186.425781 370.882812 Z M 186.425781 370.882812 "/>
</g>
</g>
<g clip-path="url(#clip17)" clip-rule="nonzero">
<g clip-path="url(#clip18)" clip-rule="nonzero">
<path style="fill:none;stroke-width:3;stroke-linecap:butt;stroke-linejoin:miter;stroke:rgb(20%,20%,20%);stroke-opacity:1;stroke-miterlimit:10;" d="M 186.425781 370.882812 C 187.15625 367.296875 190.480469 364.851562 194.121094 365.21875 L 232.601562 365.179688 L 232.597656 365.191406 C 234.546875 365.285156 236.371094 366.171875 237.644531 367.644531 C 238.921875 369.117188 239.535156 371.050781 239.347656 372.992188 C 237.089844 396.378906 224.8125 417.644531 205.6875 431.292969 C 204.101562 432.425781 202.121094 432.859375 200.207031 432.492188 C 198.292969 432.125 196.613281 430.988281 195.558594 429.347656 L 176.3125 396.035156 L 176.34375 396.011719 C 174.203125 393.042969 174.660156 388.941406 177.398438 386.515625 C 182.019531 382.417969 185.1875 376.933594 186.425781 370.882812 Z M 186.425781 370.882812 "/>
</g>
</g>
<g clip-path="url(#clip19)" clip-rule="nonzero">
<g clip-path="url(#clip20)" clip-rule="nonzero">
<path style=" stroke:none;fill-rule:nonzero;fill:rgb(22%,59.6%,14.9%);fill-opacity:1;" d="M 248.75 134.820312 C 248.75 184.664062 208.34375 225.070312 158.5 225.070312 C 108.65625 225.070312 68.25 184.664062 68.25 134.820312 C 68.25 84.976562 108.65625 44.570312 158.5 44.570312 C 208.34375 44.570312 248.75 84.976562 248.75 134.820312 Z M 248.75 134.820312 "/>
</g>
</g>
<g clip-path="url(#clip21)" clip-rule="nonzero">
<g clip-path="url(#clip22)" clip-rule="nonzero">
<path style="fill:none;stroke-width:3;stroke-linecap:butt;stroke-linejoin:miter;stroke:rgb(20%,20%,20%);stroke-opacity:1;stroke-miterlimit:10;" d="M 248.75 134.820312 C 248.75 184.664062 208.34375 225.070312 158.5 225.070312 C 108.65625 225.070312 68.25 184.664062 68.25 134.820312 C 68.25 84.976562 108.65625 44.570312 158.5 44.570312 C 208.34375 44.570312 248.75 84.976562 248.75 134.820312 Z M 248.75 134.820312 "/>
</g>
</g>
<g clip-path="url(#clip23)" clip-rule="nonzero">
<g clip-path="url(#clip24)" clip-rule="nonzero">
<path style=" stroke:none;fill-rule:nonzero;fill:rgb(0%,0%,0%);fill-opacity:1;" d="M 139.601562 156.152344 C 142.339844 158.578125 142.796875 162.683594 140.65625 165.648438 L 121.449219 198.992188 L 121.441406 198.988281 C 120.386719 200.625 118.707031 201.761719 116.792969 202.128906 C 114.878906 202.496094 112.898438 202.0625 111.3125 200.929688 C 92.1875 187.28125 79.910156 166.015625 77.652344 142.628906 C 77.464844 140.6875 78.078125 138.757812 79.355469 137.28125 C 80.628906 135.808594 82.453125 134.921875 84.402344 134.828125 L 122.875 134.820312 L 122.878906 134.855469 C 126.519531 134.488281 129.84375 136.933594 130.574219 140.519531 C 131.8125 146.570312 134.980469 152.054688 139.601562 156.152344 Z M 139.601562 156.152344 "/>
</g>
</g>
<g clip-path="url(#clip25)" clip-rule="nonzero">
<g clip-path="url(#clip26)" clip-rule="nonzero">
<path style="fill:none;stroke-width:3;stroke-linecap:butt;stroke-linejoin:miter;stroke:rgb(20%,20%,20%);stroke-opacity:1;stroke-miterlimit:10;" d="M 139.601562 156.152344 C 142.339844 158.578125 142.796875 162.683594 140.65625 165.648438 L 121.449219 198.992188 L 121.441406 198.988281 C 120.386719 200.625 118.707031 201.761719 116.792969 202.128906 C 114.878906 202.496094 112.898438 202.0625 111.3125 200.929688 C 92.1875 187.28125 79.910156 166.015625 77.652344 142.628906 C 77.464844 140.6875 78.078125 138.757812 79.355469 137.28125 C 80.628906 135.808594 82.453125 134.921875 84.402344 134.828125 L 122.875 134.820312 L 122.878906 134.855469 C 126.519531 134.488281 129.84375 136.933594 130.574219 140.519531 C 131.8125 146.570312 134.980469 152.054688 139.601562 156.152344 Z M 139.601562 156.152344 "/>
</g>
</g>
<g clip-path="url(#clip27)" clip-rule="nonzero">
<g clip-path="url(#clip28)" clip-rule="nonzero">
<path style=" stroke:none;fill-rule:nonzero;fill:rgb(0%,0%,0%);fill-opacity:1;" d="M 149.472656 107.785156 C 146.003906 108.945312 142.222656 107.285156 140.71875 103.953125 L 121.449219 70.644531 L 121.457031 70.640625 C 120.566406 68.910156 120.421875 66.886719 121.0625 65.046875 C 121.699219 63.203125 123.066406 61.703125 124.839844 60.898438 C 146.222656 51.160156 170.777344 51.160156 192.160156 60.898438 C 193.933594 61.703125 195.300781 63.203125 195.9375 65.046875 C 196.578125 66.886719 196.433594 68.910156 195.542969 70.640625 L 176.3125 103.964844 L 176.28125 103.953125 C 174.777344 107.285156 170.996094 108.945312 167.527344 107.785156 C 161.667969 105.828125 155.332031 105.828125 149.472656 107.785156 Z M 149.472656 107.785156 "/>
</g>
</g>
<g clip-path="url(#clip29)" clip-rule="nonzero">
<g clip-path="url(#clip30)" clip-rule="nonzero">
<path style="fill:none;stroke-width:3;stroke-linecap:butt;stroke-linejoin:miter;stroke:rgb(20%,20%,20%);stroke-opacity:1;stroke-miterlimit:10;" d="M 149.472656 107.785156 C 146.003906 108.945312 142.222656 107.285156 140.71875 103.953125 L 121.449219 70.644531 L 121.457031 70.640625 C 120.566406 68.910156 120.421875 66.886719 121.0625 65.046875 C 121.699219 63.203125 123.066406 61.703125 124.839844 60.898438 C 146.222656 51.160156 170.777344 51.160156 192.160156 60.898438 C 193.933594 61.703125 195.300781 63.203125 195.9375 65.046875 C 196.578125 66.886719 196.433594 68.910156 195.542969 70.640625 L 176.3125 103.964844 L 176.28125 103.953125 C 174.777344 107.285156 170.996094 108.945312 167.527344 107.785156 C 161.667969 105.828125 155.332031 105.828125 149.472656 107.785156 Z M 149.472656 107.785156 "/>
</g>
</g>
<g clip-path="url(#clip31)" clip-rule="nonzero">
<g clip-path="url(#clip32)" clip-rule="nonzero">
<path style=" stroke:none;fill-rule:nonzero;fill:rgb(0%,0%,0%);fill-opacity:1;" d="M 186.425781 140.519531 C 187.15625 136.933594 190.480469 134.488281 194.121094 134.855469 L 232.601562 134.820312 L 232.597656 134.828125 C 234.546875 134.921875 236.371094 135.808594 237.644531 137.28125 C 238.921875 138.757812 239.535156 140.6875 239.347656 142.628906 C 237.089844 166.015625 224.8125 187.28125 205.6875 200.929688 C 204.101562 202.0625 202.121094 202.496094 200.207031 202.128906 C 198.292969 201.761719 196.613281 200.625 195.558594 198.988281 L 176.3125 165.671875 L 176.34375 165.648438 C 174.203125 162.683594 174.660156 158.578125 177.398438 156.152344 C 182.019531 152.054688 185.1875 146.570312 186.425781 140.519531 Z M 186.425781 140.519531 "/>
</g>
</g>
<g clip-path="url(#clip33)" clip-rule="nonzero">
<g clip-path="url(#clip34)" clip-rule="nonzero">
<path style="fill:none;stroke-width:3;stroke-linecap:butt;stroke-linejoin:miter;stroke:rgb(20%,20%,20%);stroke-opacity:1;stroke-miterlimit:10;" d="M 186.425781 140.519531 C 187.15625 136.933594 190.480469 134.488281 194.121094 134.855469 L 232.601562 134.820312 L 232.597656 134.828125 C 234.546875 134.921875 236.371094 135.808594 237.644531 137.28125 C 238.921875 138.757812 239.535156 140.6875 239.347656 142.628906 C 237.089844 166.015625 224.8125 187.28125 205.6875 200.929688 C 204.101562 202.0625 202.121094 202.496094 200.207031 202.128906 C 198.292969 201.761719 196.613281 200.625 195.558594 198.988281 L 176.3125 165.671875 L 176.34375 165.648438 C 174.203125 162.683594 174.660156 158.578125 177.398438 156.152344 C 182.019531 152.054688 185.1875 146.570312 186.425781 140.519531 Z M 186.425781 140.519531 "/>
</g>
</g>
<g clip-path="url(#clip35)" clip-rule="nonzero">
<g clip-path="url(#clip36)" clip-rule="nonzero">
<path style=" stroke:none;fill-rule:nonzero;fill:rgb(58.4%,34.5%,69.8%);fill-opacity:1;" d="M 448.25 250 C 448.25 299.84375 407.84375 340.25 358 340.25 C 308.15625 340.25 267.75 299.84375 267.75 250 C 267.75 200.15625 308.15625 159.75 358 159.75 C 407.84375 159.75 448.25 200.15625 448.25 250 Z M 448.25 250 "/>
</g>
</g>
<g clip-path="url(#clip37)" clip-rule="nonzero">
<g clip-path="url(#clip38)" clip-rule="nonzero">
<path style="fill:none;stroke-width:3;stroke-linecap:butt;stroke-linejoin:miter;stroke:rgb(20%,20%,20%);stroke-opacity:1;stroke-miterlimit:10;" d="M 448.25 250 C 448.25 299.84375 407.84375 340.25 358 340.25 C 308.15625 340.25 267.75 299.84375 267.75 250 C 267.75 200.15625 308.15625 159.75 358 159.75 C 407.84375 159.75 448.25 200.15625 448.25 250 Z M 448.25 250 "/>
</g>
</g>
<g clip-path="url(#clip39)" clip-rule="nonzero">
<g clip-path="url(#clip40)" clip-rule="nonzero">
<path style=" stroke:none;fill-rule:nonzero;fill:rgb(0%,0%,0%);fill-opacity:1;" d="M 339.101562 271.332031 C 341.839844 273.757812 342.296875 277.863281 340.15625 280.832031 L 320.949219 314.171875 L 320.941406 314.167969 C 319.886719 315.808594 318.207031 316.941406 316.292969 317.308594 C 314.378906 317.675781 312.398438 317.246094 310.8125 316.113281 C 291.6875 302.460938 279.410156 281.199219 277.152344 257.808594 C 276.964844 255.871094 277.578125 253.9375 278.855469 252.464844 C 280.128906 250.988281 281.953125 250.101562 283.902344 250.007812 L 322.375 250 L 322.378906 250.035156 C 326.019531 249.667969 329.34375 252.117188 330.074219 255.699219 C 331.3125 261.75 334.480469 267.238281 339.101562 271.332031 Z M 339.101562 271.332031 "/>
</g>
</g>
<g clip-path="url(#clip41)" clip-rule="nonzero">
<g clip-path="url(#clip42)" clip-rule="nonzero">
<path style="fill:none;stroke-width:3;stroke-linecap:butt;stroke-linejoin:miter;stroke:rgb(20%,20%,20%);stroke-opacity:1;stroke-miterlimit:10;" d="M 339.101562 271.332031 C 341.839844 273.757812 342.296875 277.863281 340.15625 280.832031 L 320.949219 314.171875 L 320.941406 314.167969 C 319.886719 315.808594 318.207031 316.941406 316.292969 317.308594 C 314.378906 317.675781 312.398438 317.246094 310.8125 316.113281 C 291.6875 302.460938 279.410156 281.199219 277.152344 257.808594 C 276.964844 255.871094 277.578125 253.9375 278.855469 252.464844 C 280.128906 250.988281 281.953125 250.101562 283.902344 250.007812 L 322.375 250 L 322.378906 250.035156 C 326.019531 249.667969 329.34375 252.117188 330.074219 255.699219 C 331.3125 261.75 334.480469 267.238281 339.101562 271.332031 Z M 339.101562 271.332031 "/>
</g>
</g>
<g clip-path="url(#clip43)" clip-rule="nonzero">
<g clip-path="url(#clip44)" clip-rule="nonzero">
<path style=" stroke:none;fill-rule:nonzero;fill:rgb(0%,0%,0%);fill-opacity:1;" d="M 348.972656 222.96875 C 345.503906 224.125 341.722656 222.46875 340.21875 219.132812 L 320.949219 185.828125 L 320.957031 185.824219 C 320.066406 184.089844 319.921875 182.066406 320.5625 180.226562 C 321.199219 178.386719 322.566406 176.886719 324.339844 176.078125 C 345.722656 166.339844 370.277344 166.339844 391.660156 176.078125 C 393.433594 176.886719 394.800781 178.386719 395.4375 180.226562 C 396.078125 182.066406 395.933594 184.089844 395.042969 185.824219 L 375.8125 219.148438 L 375.78125 219.132812 C 374.277344 222.46875 370.496094 224.125 367.027344 222.96875 C 361.167969 221.011719 354.832031 221.011719 348.972656 222.96875 Z M 348.972656 222.96875 "/>
</g>
</g>
<g clip-path="url(#clip45)" clip-rule="nonzero">
<g clip-path="url(#clip46)" clip-rule="nonzero">
<path style="fill:none;stroke-width:3;stroke-linecap:butt;stroke-linejoin:miter;stroke:rgb(20%,20%,20%);stroke-opacity:1;stroke-miterlimit:10;" d="M 348.972656 222.96875 C 345.503906 224.125 341.722656 222.46875 340.21875 219.132812 L 320.949219 185.828125 L 320.957031 185.824219 C 320.066406 184.089844 319.921875 182.066406 320.5625 180.226562 C 321.199219 178.386719 322.566406 176.886719 324.339844 176.078125 C 345.722656 166.339844 370.277344 166.339844 391.660156 176.078125 C 393.433594 176.886719 394.800781 178.386719 395.4375 180.226562 C 396.078125 182.066406 395.933594 184.089844 395.042969 185.824219 L 375.8125 219.148438 L 375.78125 219.132812 C 374.277344 222.46875 370.496094 224.125 367.027344 222.96875 C 361.167969 221.011719 354.832031 221.011719 348.972656 222.96875 Z M 348.972656 222.96875 "/>
</g>
</g>
<g clip-path="url(#clip47)" clip-rule="nonzero">
<g clip-path="url(#clip48)" clip-rule="nonzero">
<path style=" stroke:none;fill-rule:nonzero;fill:rgb(0%,0%,0%);fill-opacity:1;" d="M 385.925781 255.699219 C 386.65625 252.117188 389.980469 249.667969 393.621094 250.035156 L 432.101562 250 L 432.097656 250.007812 C 434.046875 250.101562 435.871094 250.988281 437.144531 252.464844 C 438.421875 253.9375 439.035156 255.871094 438.847656 257.808594 C 436.589844 281.199219 424.3125 302.460938 405.1875 316.113281 C 403.601562 317.246094 401.621094 317.675781 399.707031 317.308594 C 397.792969 316.941406 396.113281 315.808594 395.058594 314.167969 L 375.8125 280.851562 L 375.84375 280.832031 C 373.703125 277.863281 374.160156 273.757812 376.898438 271.332031 C 381.519531 267.238281 384.6875 261.75 385.925781 255.699219 Z M 385.925781 255.699219 "/>
</g>
</g>
<g clip-path="url(#clip49)" clip-rule="nonzero">
<g clip-path="url(#clip50)" clip-rule="nonzero">
<path style="fill:none;stroke-width:3;stroke-linecap:butt;stroke-linejoin:miter;stroke:rgb(20%,20%,20%);stroke-opacity:1;stroke-miterlimit:10;" d="M 385.925781 255.699219 C 386.65625 252.117188 389.980469 249.667969 393.621094 250.035156 L 432.101562 250 L 432.097656 250.007812 C 434.046875 250.101562 435.871094 250.988281 437.144531 252.464844 C 438.421875 253.9375 439.035156 255.871094 438.847656 257.808594 C 436.589844 281.199219 424.3125 302.460938 405.1875 316.113281 C 403.601562 317.246094 401.621094 317.675781 399.707031 317.308594 C 397.792969 316.941406 396.113281 315.808594 395.058594 314.167969 L 375.8125 280.851562 L 375.84375 280.832031 C 373.703125 277.863281 374.160156 273.757812 376.898438 271.332031 C 381.519531 267.238281 384.6875 261.75 385.925781 255.699219 Z M 385.925781 255.699219 "/>
</g>
</g>
<g clip-path="url(#clip51)" clip-rule="nonzero">
<g clip-path="url(#clip52)" clip-rule="nonzero">
<path style="fill:none;stroke-width:7;stroke-linecap:butt;stroke-linejoin:miter;stroke:rgb(100%,64.705882%,0%);stroke-opacity:1;stroke-miterlimit:10;" d="M 538.5 35.070312 L 158.5 35.070312 C 127.488281 35.070312 98.242188 49.492188 79.363281 74.09375 C 60.484375 98.699219 54.121094 130.679688 62.148438 160.636719 C 70.175781 190.589844 91.675781 215.109375 120.328125 226.976562 C 148.976562 238.84375 181.519531 236.710938 208.375 221.203125 L 308.125 163.613281 C 338.988281 145.796875 377.011719 145.796875 407.875 163.613281 C 438.738281 181.433594 457.75 214.363281 457.75 250 C 457.75 285.636719 438.738281 318.566406 407.875 336.386719 C 377.011719 354.203125 338.988281 354.203125 308.125 336.386719 L 208.375 278.796875 C 181.519531 263.289062 148.976562 261.15625 120.328125 273.023438 C 91.675781 284.890625 70.175781 309.410156 62.148438 339.363281 C 54.121094 369.320312 60.484375 401.300781 79.363281 425.90625 C 98.242188 450.507812 127.488281 464.929688 158.5 464.929688 L 538.5 464.929688 "/>
</g>
</g>
</g>
</svg>
